<?xml version="1.0" standalone="no"?>
<!DOCTYPE svg PUBLIC "-//W3C//DTD SVG 20010904//EN"
 "http://www.w3.org/TR/2001/REC-SVG-20010904/DTD/svg10.dtd">
<svg version="1.0" xmlns="http://www.w3.org/2000/svg"
 width="1280.000000pt" height="1280.000000pt" viewBox="0 0 1280.000000 1280.000000"
 preserveAspectRatio="xMidYMid meet">
<g transform="translate(0.000000,1280.000000) scale(0.100000,-0.100000)"
fill="#000000" stroke="none">
<path d="M6264 12775 c-49 -12 -112 -34 -140 -48 -127 -64 -235 -175 -296
-303 -58 -124 -59 -135 -56 -938 3 -725 3 -732 25 -796 67 -195 225 -352 418
-413 55 -17 94 -22 185 -22 91 0 130 5 185 22 194 62 351 216 418 413 22 64
22 71 25 796 2 623 0 743 -12 804 -39 187 -164 348 -339 436 -62 32 -225 74
-280 73 -23 0 -83 -11 -133 -24z"/>
<path d="M2170 11085 c-112 -31 -200 -83 -286 -169 -93 -94 -143 -183 -170
-302 -21 -97 -15 -241 15 -334 44 -138 68 -166 536 -639 505 -509 591 -588
692 -637 245 -118 528 -69 723 126 122 121 180 264 180 440 0 142 -41 266
-125 379 -18 25 -256 267 -527 537 -518 516 -544 538 -678 585 -84 29 -276 37
-360 14z"/>
<path d="M10325 11086 c-67 -16 -176 -68 -228 -108 -61 -46 -960 -943 -1016
-1013 -176 -220 -189 -523 -32 -754 178 -261 519 -344 814 -199 80 40 95 53
603 562 499 499 522 524 562 602 52 102 72 184 72 299 0 177 -57 314 -184 440
-91 90 -162 133 -276 164 -86 24 -233 27 -315 7z"/>
<path d="M6205 8944 c-351 -36 -639 -114 -912 -248 -278 -136 -475 -277 -694
-495 -399 -400 -636 -874 -725 -1451 -25 -161 -25 -539 0 -700 69 -452 227
-833 494 -1190 111 -148 344 -381 492 -492 352 -263 722 -419 1162 -490 181
-29 555 -32 728 -5 294 46 534 121 780 243 773 385 1282 1098 1401 1964 18
125 18 515 0 640 -125 902 -671 1636 -1500 2014 -181 82 -450 159 -675 192
-97 14 -468 26 -551 18z m346 -1265 c103 -13 213 -40 303 -74 354 -133 642
-432 764 -790 160 -472 39 -982 -316 -1331 -178 -176 -396 -292 -645 -346
-144 -31 -370 -31 -515 0 -506 109 -895 499 -1004 1004 -31 146 -30 371 1 518
140 654 762 1103 1412 1019z"/>
<path d="M530 7023 c-177 -31 -361 -164 -443 -320 -39 -75 -87 -239 -87 -298
0 -59 40 -207 75 -280 76 -157 212 -273 385 -327 l75 -23 750 0 750 0 80 27
c248 85 417 305 432 562 16 290 -147 530 -434 639 -58 22 -62 22 -808 23 -412
1 -761 0 -775 -3z"/>
<path d="M10770 7020 c-124 -21 -241 -83 -334 -176 -72 -72 -118 -145 -154
-246 -22 -63 -26 -89 -27 -193 0 -97 4 -133 22 -190 62 -194 217 -351 413
-418 64 -22 71 -22 796 -25 623 -2 743 0 804 12 187 39 348 164 436 339 30 58
74 223 74 275 0 54 -44 221 -73 278 -91 179 -269 313 -458 343 -75 13 -1428
13 -1499 1z"/>
<path d="M3065 3841 c-85 -25 -126 -44 -192 -89 -90 -62 -1051 -1034 -1092
-1105 -53 -90 -81 -201 -81 -316 0 -184 56 -319 184 -447 94 -93 183 -143 302
-170 97 -21 241 -15 334 15 135 43 157 62 712 620 501 503 526 529 562 602
176 363 -22 794 -410 893 -83 22 -241 20 -319 -3z"/>
<path d="M9412 3840 c-287 -77 -472 -316 -472 -610 0 -110 21 -194 72 -294 40
-77 65 -105 532 -574 270 -271 514 -511 541 -532 114 -88 239 -130 390 -130
176 0 312 57 440 185 91 91 143 182 171 300 21 91 15 244 -15 335 -45 142 -61
160 -606 705 -545 545 -563 561 -705 606 -97 31 -254 35 -348 9z"/>
<path d="M6260 2535 c-168 -38 -337 -165 -411 -310 -79 -152 -74 -89 -74 -945
0 -856 -5 -793 74 -945 48 -93 153 -198 248 -248 75 -39 239 -87 298 -87 59 0
207 40 280 75 176 85 301 248 340 440 14 70 15 171 13 800 l-3 720 -23 70
c-66 197 -210 345 -404 412 -92 32 -241 40 -338 18z"/>
</g>
</svg>
